<?xml version="1.0" standalone="no"?>
<!DOCTYPE svg PUBLIC "-//W3C//DTD SVG 20010904//EN"
 "http://www.w3.org/TR/2001/REC-SVG-20010904/DTD/svg10.dtd">
<svg version="1.0" xmlns="http://www.w3.org/2000/svg"
 width="1150.000000pt" height="1150.000000pt" viewBox="0 0 1150.000000 1150.000000"
 preserveAspectRatio="xMidYMid meet">
<metadata>
Created by potrace 1.11, written by Peter Selinger 2001-2013
</metadata>
<g transform="translate(0.000000,1150.000000) scale(0.100000,-0.100000)"
fill="#000000" stroke="none">
<path d="M5520 11494 c-394 -26 -624 -53 -881 -104 -995 -198 -1901 -642
-2667 -1308 -153 -133 -460 -443 -596 -602 -1092 -1276 -1569 -2982 -1300
-4650 236 -1466 1027 -2775 2219 -3675 760 -574 1678 -957 2620 -1094 306 -44
474 -55 840 -55 443 1 729 28 1120 105 2110 420 3816 1994 4405 4067 388 1363
255 2835 -370 4107 -205 417 -488 847 -786 1195 -138 161 -434 460 -592 598
-926 807 -2056 1289 -3282 1397 -161 15 -620 27 -730 19z m-3105 -1560 c50 -8
164 -33 255 -55 91 -22 203 -49 249 -60 83 -19 445 -132 676 -211 199 -67 433
-160 617 -245 l76 -35 98 42 c536 229 1222 337 1834 289 143 -12 146 -12 230
14 520 158 1261 235 1890 197 326 -20 557 -51 870 -116 223 -47 264 -59 304
-95 51 -44 70 -103 61 -185 -4 -37 -13 -84 -20 -104 -13 -38 -160 -337 -174
-355 -5 -5 -36 -64 -70 -130 -147 -282 -587 -946 -776 -1170 -23 -27 -47 -60
-54 -72 -6 -13 -16 -98 -22 -190 -10 -179 -37 -388 -69 -543 -11 -52 -18 -96
-16 -98 2 -2 51 2 107 9 131 15 532 6 719 -15 241 -29 517 -88 545 -118 7 -7
4 -9 -10 -5 -11 3 -54 15 -95 26 -260 71 -807 95 -1130 49 -85 -11 -156 -22
-158 -23 -1 -1 -14 -42 -27 -91 -47 -176 -81 -267 -157 -426 -28 -59 -49 -110
-47 -113 3 -2 79 -18 168 -35 308 -58 550 -128 776 -224 123 -53 300 -145 292
-152 -2 -2 -46 16 -98 40 -116 55 -379 145 -542 186 -131 32 -496 104 -587
115 l-55 7 -20 -38 c-11 -21 -55 -87 -97 -147 -43 -60 -78 -111 -78 -113 0 -2
28 -18 63 -35 280 -141 616 -369 836 -568 76 -69 285 -301 277 -308 -1 -2 -57
50 -122 114 -66 65 -167 155 -225 200 -185 144 -501 345 -749 477 l-122 65
-126 -130 c-140 -146 -268 -256 -394 -341 -89 -60 -215 -135 -261 -156 -30
-13 -30 -22 -1 -87 47 -107 122 -417 145 -602 14 -114 7 -456 -11 -533 -29
-127 -190 -383 -306 -489 -148 -135 -337 -223 -500 -232 l-49 -3 2 39 c2 22
19 73 38 113 33 69 36 92 15 92 -16 0 -79 -141 -86 -191 l-7 -49 -51 0 c-72 0
-175 31 -236 70 -58 37 -110 101 -110 134 1 29 37 106 62 134 17 17 19 25 10
34 -17 17 -49 -15 -77 -75 l-23 -49 -13 39 c-9 23 -14 79 -13 143 0 93 4 116
36 208 94 272 279 463 543 562 l70 26 3 58 c3 55 -21 256 -35 292 -10 26 -28
9 -27 -27 0 -19 4 -87 8 -152 l7 -118 -33 -12 c-83 -30 -229 -111 -290 -161
-197 -163 -334 -420 -345 -650 -4 -73 -1 -118 10 -162 20 -78 80 -187 130
-237 137 -137 448 -166 707 -65 215 83 422 283 544 526 24 49 41 70 49 66 175
-102 337 -303 391 -483 21 -71 21 -220 0 -292 -35 -118 -122 -238 -223 -305
l-39 -25 64 -85 c70 -93 167 -282 209 -409 124 -367 107 -741 -46 -1048 -83
-166 -210 -320 -329 -397 -95 -62 -290 -153 -330 -156 -19 -1 -87 -15 -150
-32 -64 -17 -170 -36 -237 -43 -398 -39 -859 117 -1127 384 -181 179 -262 363
-254 573 3 93 7 108 38 170 41 80 108 140 197 175 51 21 74 23 193 23 206 -1
313 -34 925 -288 265 -110 456 -115 566 -17 68 60 84 174 54 386 -27 189 -67
328 -130 456 -41 80 -60 99 -70 68 -13 -40 -107 -129 -138 -129 -2 0 -9 19
-16 43 -20 65 -59 127 -81 127 -25 0 -25 -6 4 -71 13 -30 27 -68 31 -86 6 -31
6 -32 -41 -39 -49 -7 -234 0 -270 11 -14 5 -24 21 -33 54 -15 59 -46 111 -66
111 -19 0 -19 -18 0 -63 8 -20 15 -47 15 -61 l0 -25 -62 18 c-84 24 -202 75
-260 112 -46 30 -48 30 -140 24 -51 -4 -137 -2 -191 4 l-98 10 -83 -43 c-94
-48 -189 -81 -211 -72 -19 7 -34 45 -42 103 -6 49 -29 58 -39 17 -6 -25 4 -87
21 -127 6 -15 -1 -17 -84 -17 l-91 0 -20 33 c-14 22 -20 50 -20 89 0 62 -15
82 -37 52 -10 -13 -13 -37 -11 -76 3 -32 0 -58 -5 -58 -4 0 -31 22 -59 48 -38
36 -53 60 -62 96 l-12 47 -87 29 c-253 86 -448 233 -533 404 -68 138 -69 260
-3 395 44 90 183 228 299 295 119 70 269 132 381 158 l97 22 5 40 c15 104 41
426 35 431 -3 4 -37 -7 -75 -23 -167 -72 -286 -97 -528 -112 -99 -5 -202 -13
-228 -16 -43 -5 -49 -4 -54 15 -4 15 -13 21 -33 21 -39 0 -92 20 -87 34 2 6
-30 27 -72 47 -147 70 -260 178 -312 299 -16 37 -25 47 -39 43 -24 -6 -38 21
-46 90 -5 40 -10 54 -20 50 -38 -14 -25 125 21 225 14 31 22 53 17 47 -18 -19
-169 -241 -261 -382 -51 -79 -95 -143 -97 -143 -6 0 12 33 44 85 14 22 94 153
177 291 153 254 249 398 323 488 l40 49 -87 86 c-48 47 -109 110 -135 139 -38
43 -52 52 -69 46 -39 -11 -259 -134 -337 -187 -115 -79 -260 -188 -425 -322
-223 -180 -233 -177 -18 5 55 47 156 133 224 191 164 140 322 258 436 326 57
34 90 60 86 67 -4 6 -36 56 -73 111 -36 55 -81 126 -99 158 l-32 57 -82 0
c-171 0 -672 -56 -905 -101 -244 -47 -64 8 228 70 238 50 576 101 675 101 l54
0 -33 78 c-18 42 -48 122 -66 177 -28 84 -43 113 -97 180 -247 310 -473 753
-654 1283 -196 574 -291 1072 -320 1665 -6 126 -8 248 -5 271 14 90 80 150
182 165 85 12 80 12 179 -5z"/>
<path d="M2637 9373 c-14 -14 -6 -70 17 -118 l24 -50 -5 68 c-6 63 -5 67 13
60 46 -17 299 -252 421 -391 104 -119 97 -106 80 -139 -16 -30 -34 -110 -41
-183 -2 -25 -5 -47 -6 -50 0 -3 -8 9 -17 25 -26 50 -44 65 -79 65 -43 0 -77
-42 -104 -128 -28 -90 -36 -270 -18 -374 8 -43 11 -78 8 -78 -4 0 -15 9 -26
21 -73 81 -124 22 -109 -126 16 -169 77 -400 147 -559 71 -161 196 -346 234
-346 24 0 16 17 -45 99 -106 143 -196 340 -245 539 -41 164 -63 358 -43 378
20 21 112 -109 178 -253 31 -69 47 -93 60 -93 27 0 24 16 -27 131 -25 57 -58
147 -71 199 -55 207 -24 517 54 547 34 13 86 -100 127 -278 31 -132 42 -159
60 -159 26 0 26 17 1 112 -33 125 -44 239 -34 341 20 200 69 227 146 81 29
-57 40 -64 50 -38 8 21 -27 92 -67 138 -24 27 -40 36 -64 36 -26 0 -38 8 -62
43 -89 124 -304 338 -448 444 -54 40 -93 53 -109 36z"/>
<path d="M8290 9264 c-199 -30 -485 -113 -599 -175 -49 -26 -59 -28 -89 -18
-75 25 -191 -9 -309 -89 -82 -56 -153 -129 -153 -158 0 -13 2 -24 5 -24 3 0
33 28 68 63 100 102 244 177 339 177 45 0 83 -31 94 -76 10 -37 -12 -147 -42
-209 -42 -89 -28 -103 39 -40 103 97 286 154 353 110 94 -61 60 -242 -106
-560 -48 -93 -91 -181 -95 -195 -13 -40 16 -11 75 79 43 67 59 82 100 100 55
24 82 26 112 10 24 -13 48 -67 48 -109 0 -88 -71 -314 -144 -458 -31 -62 -32
-72 -6 -72 16 0 29 20 61 88 80 173 129 339 129 438 0 115 -52 169 -152 160
l-57 -6 34 74 c70 153 106 309 91 390 -4 20 -20 52 -36 70 -59 67 -169 67
-301 1 -39 -20 -73 -34 -75 -33 -1 2 1 21 6 43 14 58 12 121 -4 159 l-14 34
57 26 c236 106 740 204 869 170 17 -5 21 -11 17 -25 -9 -26 31 -26 45 0 13 26
5 46 -26 60 -34 15 -217 12 -334 -5z"/>
<path d="M7005 7236 c-112 -87 -497 -331 -711 -450 l-122 -67 8 -32 c49 -210
151 -363 315 -472 56 -37 141 -75 168 -75 7 0 51 46 97 101 47 56 140 158 208
227 68 70 127 133 131 142 37 71 49 382 19 478 -21 65 -69 172 -77 172 -3 0
-19 -11 -36 -24z"/>
<path d="M4176 6794 c-14 -55 -7 -208 13 -286 22 -85 75 -206 123 -281 29 -45
42 -54 187 -126 86 -43 211 -111 279 -150 96 -56 126 -69 140 -62 40 21 149
150 184 216 55 106 79 195 85 315 3 58 1 121 -4 140 l-9 35 -155 26 c-85 15
-218 41 -296 58 -130 29 -485 121 -524 136 -12 4 -18 -1 -23 -21z"/>
<path d="M5730 5830 c-25 -16 -51 -34 -58 -40 -9 -9 -21 -9 -44 -1 -41 15 -68
14 -68 -2 0 -12 72 -37 108 -37 21 0 142 85 142 100 0 18 -34 9 -80 -20z"/>
<path d="M6416 5785 c-38 -87 -95 -146 -171 -175 -84 -32 -256 -39 -409 -15
l-114 17 -61 -50 c-95 -76 -140 -96 -198 -87 -91 15 -93 15 -93 -4 0 -32 22
-81 36 -81 7 0 16 11 20 25 5 20 11 24 26 19 63 -20 140 11 240 94 l46 39 64
-14 c37 -9 125 -15 213 -16 132 -2 159 1 224 21 95 30 160 88 207 187 39 79
42 105 16 105 -14 0 -27 -18 -46 -65z"/>
<path d="M4111 5414 c-51 -13 -128 -38 -170 -54 -42 -17 -81 -30 -88 -30 -11
0 -153 -153 -153 -165 0 -2 29 18 65 45 180 136 460 211 670 180 147 -21 233
-77 286 -186 29 -59 31 -69 27 -146 -4 -65 -11 -96 -33 -140 -34 -68 -25 -88
17 -36 29 35 31 36 62 23 49 -20 179 -35 248 -29 74 8 112 23 58 24 -37 0
-227 41 -272 59 -25 9 -26 12 -16 48 14 52 3 146 -25 207 -48 103 -118 160
-250 201 -111 35 -291 35 -426 -1z"/>
<path d="M4184 5274 c3 -9 6 -18 6 -20 0 -2 9 -4 20 -4 23 0 26 10 8 28 -18
18 -41 15 -34 -4z"/>
<path d="M4500 5267 c0 -14 20 -37 32 -37 15 0 8 38 -8 44 -22 8 -24 8 -24 -7z"/>
<path d="M4200 5173 c-43 -39 -49 -87 -18 -133 61 -90 198 -43 198 68 0 83
-114 124 -180 65z"/>
<path d="M4504 5166 c-59 -26 -69 -115 -17 -156 36 -28 85 -26 122 6 41 34 42
81 4 123 -34 37 -68 45 -109 27z"/>
<path d="M3875 5150 c-9 -15 13 -40 37 -40 24 0 19 18 -9 37 -15 10 -23 11
-28 3z"/>
<path d="M3975 5052 c-57 -35 -74 -81 -51 -136 44 -106 196 -53 196 68 0 26
-7 40 -31 60 -36 31 -72 33 -114 8z"/>
<path d="M4293 4930 c-147 -30 -208 -158 -96 -201 38 -14 97 -11 181 12 78 21
130 52 158 94 46 71 -91 124 -243 95z"/>
</g>
</svg>
