<?xml version="1.0" standalone="no"?>
<!DOCTYPE svg PUBLIC "-//W3C//DTD SVG 20010904//EN"
 "http://www.w3.org/TR/2001/REC-SVG-20010904/DTD/svg10.dtd">
<svg version="1.0" xmlns="http://www.w3.org/2000/svg"
 width="600.000000pt" height="600.000000pt" viewBox="0 0 600.000000 600.000000"
 preserveAspectRatio="xMidYMid meet">
<metadata>
Created by potrace 1.11, written by Peter Selinger 2001-2013
</metadata>
<g transform="translate(0.000000,600.000000) scale(0.100000,-0.100000)"
fill="#000000" stroke="none">
<path d="M2740 5639 c-134 -14 -345 -55 -480 -94 -145 -42 -385 -135 -373
-145 4 -4 46 -22 93 -40 47 -18 120 -48 162 -67 l77 -35 73 30 c177 73 407
130 615 152 69 8 191 11 310 8 173 -4 206 -2 258 14 33 10 113 29 179 43 65
13 120 26 122 28 6 6 -239 64 -341 81 -212 36 -492 45 -695 25z"/>
<path d="M4355 5186 c-93 -25 -193 -61 -209 -76 -5 -5 -31 -6 -57 -3 -42 5
-59 1 -113 -26 -59 -29 -145 -106 -132 -118 3 -3 28 15 56 41 125 117 255 115
235 -3 -4 -22 -15 -56 -25 -75 -24 -47 -14 -52 28 -14 73 63 171 87 205 50 40
-44 16 -146 -76 -327 -38 -74 -47 -99 -29 -76 59 75 79 91 116 91 41 0 56 -20
56 -75 0 -42 -39 -164 -75 -235 -15 -30 -21 -51 -15 -55 21 -13 110 222 110
291 0 70 -35 103 -96 91 -16 -3 -23 0 -20 7 48 114 59 150 64 208 4 62 3 68
-22 93 -24 24 -33 27 -76 23 -26 -3 -67 -14 -91 -26 -24 -12 -44 -20 -46 -19
-1 2 2 20 8 41 7 26 7 47 0 68 -10 28 -9 30 32 48 55 24 210 69 265 77 29 4
39 9 30 14 -18 12 -20 11 -123 -15z"/>
<path d="M1450 5157 c0 -4 34 -47 75 -94 60 -69 74 -90 68 -107 -3 -12 -12
-48 -18 -81 -12 -59 -12 -59 -25 -33 -24 50 -55 45 -88 -16 -13 -25 -17 -58
-17 -158 l0 -127 -22 21 c-60 56 -68 -53 -19 -246 29 -114 90 -244 143 -305
48 -57 54 -44 9 18 -51 69 -111 201 -136 301 -27 104 -38 220 -22 220 17 0 71
-77 99 -142 14 -32 30 -58 34 -58 14 0 11 13 -16 73 -42 95 -57 173 -53 272 3
94 21 147 49 153 20 4 51 -64 73 -162 18 -75 24 -89 35 -82 4 3 0 36 -10 73
-31 119 -19 273 23 281 11 2 25 -11 40 -37 13 -23 26 -41 31 -41 12 0 8 11
-18 57 -18 30 -32 43 -48 43 -15 0 -35 16 -59 48 -41 52 -128 140 -128 129z"/>
<path d="M4946 4775 c-10 -28 -167 -258 -249 -364 -43 -58 -83 -114 -87 -125
-4 -12 -13 -86 -19 -166 -6 -80 -18 -178 -27 -219 -8 -40 -14 -74 -12 -76 2
-1 39 2 83 7 142 16 495 -15 642 -57 81 -24 72 -35 -11 -14 -41 10 -116 23
-167 29 -127 13 -408 11 -493 -3 l-68 -12 -38 -115 c-20 -63 -51 -143 -68
-177 -35 -69 -38 -66 48 -78 183 -26 479 -124 598 -197 54 -33 30 -30 -49 6
-108 50 -251 92 -417 125 -248 49 -226 50 -258 -1 -15 -24 -40 -59 -55 -79
-16 -20 -29 -40 -29 -43 0 -3 24 -18 53 -32 176 -89 382 -238 509 -366 119
-121 134 -155 21 -48 -127 121 -329 260 -529 367 l-82 43 -73 -76 c-96 -98
-202 -184 -301 -242 -67 -38 -79 -49 -74 -66 3 -12 21 -76 40 -142 63 -223 72
-450 21 -575 -51 -127 -158 -251 -264 -308 -58 -31 -186 -65 -203 -55 -10 7 0
49 24 96 10 21 14 38 8 38 -13 0 -38 -51 -48 -97 -8 -36 -10 -38 -43 -35 -67
6 -111 24 -151 60 -35 32 -39 40 -34 70 3 19 13 43 22 53 10 11 14 22 10 26
-9 9 -45 -36 -46 -55 0 -32 -18 2 -24 46 -21 162 109 382 274 459 36 17 74 34
84 37 17 6 18 13 13 75 -14 150 -36 182 -29 44 l4 -88 -63 -28 c-89 -38 -167
-102 -222 -183 -66 -98 -90 -170 -91 -274 -1 -74 3 -92 26 -136 35 -67 86
-108 157 -128 207 -58 454 55 571 263 58 103 52 98 93 72 56 -34 133 -125 169
-199 29 -58 33 -76 32 -142 0 -60 -5 -85 -26 -126 -27 -52 -66 -98 -106 -125
l-22 -16 46 -69 c56 -83 86 -148 121 -263 22 -74 26 -105 27 -221 0 -111 -3
-147 -21 -202 -11 -38 -19 -68 -16 -68 2 0 54 25 114 56 294 150 604 405 821
674 300 373 495 825 570 1325 21 141 18 570 -6 720 -75 485 -265 920 -563
1291 -98 120 -108 130 -117 109z"/>
<path d="M940 4669 c-301 -374 -491 -807 -566 -1294 -24 -150 -27 -579 -6
-720 75 -500 270 -952 570 -1325 381 -472 930 -805 1534 -930 105 -22 328 -50
394 -50 l42 0 -58 59 c-109 112 -166 278 -130 385 17 52 67 106 120 129 103
46 243 20 525 -98 195 -81 243 -95 320 -95 69 0 118 25 143 70 17 32 10 212
-12 290 -35 131 -80 222 -93 190 -8 -19 -59 -70 -70 -70 -5 0 -19 22 -30 50
-12 27 -26 50 -32 50 -15 0 -13 -20 4 -50 8 -14 14 -33 15 -42 0 -24 -56 -33
-133 -22 -59 9 -62 10 -68 43 -4 18 -14 40 -23 49 -19 19 -20 10 -6 -37 5 -19
8 -36 7 -38 -7 -6 -87 22 -148 52 -62 31 -75 34 -176 36 -101 2 -113 0 -168
-26 -32 -15 -73 -28 -89 -29 -29 -1 -32 3 -42 44 -9 35 -13 41 -19 27 -4 -10
-3 -34 3 -53 9 -31 8 -34 -11 -36 -82 -5 -107 12 -107 74 0 21 -4 38 -9 38
-12 0 -23 -48 -16 -71 4 -10 2 -19 -3 -19 -16 0 -72 69 -72 89 0 14 -14 23
-52 36 -138 45 -256 134 -306 230 -20 38 -26 65 -27 115 0 84 21 127 100 205
69 69 188 133 297 162 63 16 68 20 73 48 8 46 23 230 20 233 -2 2 -32 -8 -67
-22 -35 -14 -84 -30 -109 -35 -69 -16 -323 -31 -327 -20 -2 5 -12 9 -23 9 -10
0 -27 8 -37 17 -10 10 -38 28 -64 40 -64 30 -115 78 -150 140 -16 29 -35 51
-41 50 -6 -1 -15 17 -20 41 -6 23 -14 42 -18 42 -14 0 -10 57 6 96 25 59 0 29
-90 -111 -48 -75 -90 -134 -92 -131 -6 6 231 390 284 460 l45 59 -74 76 c-40
41 -74 77 -75 79 -4 8 -177 -89 -242 -135 -54 -39 -187 -143 -296 -232 l-20
-16 20 24 c57 67 347 296 503 397 9 5 -124 194 -137 194 -102 0 -553 -57 -610
-77 -12 -4 -13 -3 -6 6 21 22 490 111 589 111 23 0 27 3 21 18 -4 9 -21 55
-37 101 -20 56 -46 104 -78 145 -175 223 -355 630 -452 1025 l-14 54 -84 -104z"/>
<path d="M3720 4028 c-79 -57 -299 -193 -365 -225 l-57 -28 6 -39 c17 -103
115 -229 215 -276 l53 -24 36 39 c19 22 77 86 128 142 l92 101 7 67 c4 37 5
95 3 129 -5 61 -39 157 -55 155 -4 0 -33 -19 -63 -41z"/>
<path d="M2154 3794 c-15 -61 19 -201 71 -290 21 -36 38 -50 90 -73 35 -16
108 -55 162 -87 l97 -57 52 56 c71 77 97 145 98 261 l1 89 -160 32 c-88 18
-213 46 -277 64 -64 17 -119 31 -122 31 -3 0 -9 -12 -12 -26z"/>
<path d="M3035 3256 c-29 -18 -45 -22 -62 -15 -12 4 -25 4 -28 0 -5 -9 28 -21
60 -21 20 1 99 59 80 60 -5 0 -28 -11 -50 -24z"/>
<path d="M3426 3225 c-41 -79 -77 -98 -192 -103 -50 -2 -115 1 -144 7 -50 11
-55 10 -79 -12 -51 -48 -78 -59 -126 -55 -42 5 -45 3 -45 -18 0 -28 18 -41 26
-19 5 12 14 14 34 10 20 -4 40 3 88 35 l61 41 82 -11 c174 -24 278 17 325 128
24 58 1 56 -30 -3z"/>
<path d="M2119 3025 c-87 -22 -161 -59 -199 -100 -39 -42 -36 -41 39 9 95 65
247 97 355 77 68 -13 113 -39 143 -86 39 -59 38 -98 -2 -210 -6 -17 -4 -17 12
3 17 21 23 22 63 13 25 -6 72 -10 105 -10 l60 1 -60 14 c-129 30 -118 21 -119
96 -1 57 -5 72 -31 109 -46 65 -109 92 -220 96 -54 1 -112 -3 -146 -12z"/>
<path d="M2165 2940 c3 -5 8 -10 11 -10 2 0 4 5 4 10 0 6 -5 10 -11 10 -5 0
-7 -4 -4 -10z"/>
<path d="M2340 2941 c0 -6 5 -13 10 -16 6 -3 10 1 10 9 0 9 -4 16 -10 16 -5 0
-10 -4 -10 -9z"/>
<path d="M2167 2882 c-19 -21 -21 -45 -7 -73 14 -25 71 -26 93 -1 20 22 22 63
5 80 -18 18 -73 14 -91 -6z"/>
<path d="M2336 2877 c-25 -18 -18 -77 10 -88 55 -20 99 52 52 85 -27 19 -39
20 -62 3z"/>
<path d="M1986 2872 c-3 -6 -1 -14 5 -17 15 -10 25 3 12 16 -7 7 -13 7 -17 1z"/>
<path d="M2032 2810 c-38 -36 -20 -100 28 -100 51 0 84 78 44 107 -25 18 -47
16 -72 -7z"/>
<path d="M2183 2735 c-33 -14 -51 -50 -40 -80 16 -40 147 -24 200 26 l32 29
-24 20 c-28 24 -118 27 -168 5z"/>
</g>
</svg>
